SplineFontDB: 3.0
FontName: Jones-it-Black
FullName: Jones* Black
FamilyName: Jones* Black
Weight: Black
Copyright: 
UComments: "2016-1-29: Created with FontForge (http://fontforge.org)"
Version: 002.000
ItalicAngle: 0
UnderlinePosition: -150
UnderlineWidth: 50
Ascent: 784
Descent: 216
InvalidEm: 0
LayerCount: 2
Layer: 0 0 "Back" 1
Layer: 1 0 "Fore" 0
XUID: [1021 31 -699969567 4970488]
FSType: 0
OS2Version: 2
OS2_WeightWidthSlopeOnly: 0
OS2_UseTypoMetrics: 0
CreationTime: 1454127431
ModificationTime: 1496412869
PfmFamily: 17
TTFWeight: 900
TTFWidth: 5
LineGap: 0
VLineGap: 0
OS2TypoAscent: 784
OS2TypoAOffset: 0
OS2TypoDescent: -216
OS2TypoDOffset: 0
OS2TypoLinegap: 200
OS2WinAscent: 850
OS2WinAOffset: 0
OS2WinDescent: 300
OS2WinDOffset: 0
HheadAscent: 850
HheadAOffset: 0
HheadDescent: -300
HheadDOffset: 0
OS2SubXSize: 650
OS2SubYSize: 600
OS2SubXOff: 0
OS2SubYOff: 75
OS2SupXSize: 650
OS2SupYSize: 600
OS2SupXOff: 0
OS2SupYOff: 350
OS2StrikeYSize: 50
OS2StrikeYPos: 314
OS2CapHeight: 700
OS2XHeight: 520
OS2Vendor: 'PfEd'
Lookup: 5 0 0 "lig" { "lig-1"  } ['calt' ('DFLT' <'dflt' > 'grek' <'dflt' > 'latn' <'dflt' > ) ]
Lookup: 1 0 0 "fi" { "fi-1"  } ['ss01' ('DFLT' <'dflt' > 'grek' <'dflt' > 'latn' <'dflt' > ) ]
Lookup: 258 0 0 "kern" { "kerning" [150,0,2] } ['kern' ('DFLT' <'dflt' > 'grek' <'dflt' > 'latn' <'dflt' > ) ]
MarkAttachClasses: 1
DEI: 91125
KernClass2: 13 10 "kerning"
 3 A L
 5 D O Q
 3 F P
 3 K X
 3 V W
 13 b e h m n o p
 15 a c g q r s u z
 14 d f i j l t fi
 3 k x
 3 v w
 3 R B
 3 T Y
 1 A
 7 C G O Q
 3 T Y
 3 V W
 15 a m n p r s u z
 11 c d e g o q
 18 b f h i j k l t fi
 5 v w y
 1 x

StartChar: E
Encoding: 69 69 0
Width: 670
VWidth: 0
Flags: HMW
AnchorPoint: "ced" 495 0 basechar 0
AnchorPoint: "dot" 365 760 basechar 0
LayerCount: 2
Fore
SplineSet
60 433 m 1
 600 433 l 5
 600 283 l 5
 60 283 l 1
 60 433 l 1
60 700 m 1
 650 700 l 5
 650 550 l 5
 60 550 l 1
 60 700 l 1
60 160 m 1
 650 160 l 5
 650 0 l 5
 60 0 l 1
 60 160 l 1
60 700 m 1
 230 700 l 1
 230 0 l 1
 60 0 l 1
 60 700 l 1
EndSplineSet
EndChar

StartChar: I
Encoding: 73 73 1
Width: 300
VWidth: 0
Flags: HMW
AnchorPoint: "ced" 145 0 basechar 0
AnchorPoint: "dot" 140 760 basechar 0
LayerCount: 2
Fore
SplineSet
65 700 m 5
 235 700 l 1
 235 0 l 1
 65 0 l 5
 65 700 l 5
EndSplineSet
EndChar

StartChar: F
Encoding: 70 70 2
Width: 665
VWidth: 0
Flags: HMW
AnchorPoint: "ced" 105 0 basechar 0
AnchorPoint: "dot" 365 760 basechar 0
LayerCount: 2
Fore
SplineSet
60 413 m 1
 590 413 l 5
 590 263 l 5
 60 263 l 1
 60 413 l 1
60 700 m 1
 640 700 l 5
 640 550 l 5
 60 550 l 1
 60 700 l 1
60 700 m 1
 230 700 l 1
 230 0 l 1
 60 0 l 1
 60 700 l 1
EndSplineSet
EndChar

StartChar: H
Encoding: 72 72 3
Width: 765
VWidth: 0
Flags: HMW
AnchorPoint: "ced" 625 0 basechar 0
AnchorPoint: "dot" 380 760 basechar 0
LayerCount: 2
Fore
SplineSet
535 700 m 5
 705 700 l 5
 705 0 l 5
 535 0 l 5
 535 700 l 5
60 433 m 1
 650 433 l 5
 650 283 l 5
 60 283 l 1
 60 433 l 1
60 700 m 1
 230 700 l 1
 230 0 l 1
 60 0 l 1
 60 700 l 1
EndSplineSet
EndChar

StartChar: L
Encoding: 76 76 4
Width: 655
VWidth: 0
Flags: HMW
AnchorPoint: "ced" 365 0 basechar 0
AnchorPoint: "dot" 385 760 basechar 0
LayerCount: 2
Fore
SplineSet
60 150 m 1
 630 150 l 5
 630 0 l 5
 60 0 l 1
 60 150 l 1
60 700 m 1
 230 700 l 1
 230 0 l 1
 60 0 l 1
 60 700 l 1
EndSplineSet
EndChar

StartChar: T
Encoding: 84 84 5
Width: 690
VWidth: 0
Flags: HMW
AnchorPoint: "ced" 347 0 basechar 0
AnchorPoint: "dot" 345 760 basechar 0
LayerCount: 2
Fore
SplineSet
20 700 m 1
 670 700 l 5
 670 550 l 5
 20 550 l 1
 20 700 l 1
260 700 m 1
 430 700 l 1
 430 0 l 1
 260 0 l 1
 260 700 l 1
EndSplineSet
EndChar

StartChar: O
Encoding: 79 79 7
Width: 850
VWidth: 0
Flags: HMW
AnchorPoint: "ced" 425 0 basechar 0
AnchorPoint: "dot" 425 760 basechar 0
LayerCount: 2
Fore
SplineSet
210 350 m 4
 210 234 302 130 425 130 c 4
 548 130 640 234 640 350 c 4
 640 466 548 570 425 570 c 4
 302 570 210 466 210 350 c 4
40 350 m 4
 40 549 210 720 425 720 c 4
 640 720 810 549 810 350 c 4
 810 151 640 -20 425 -20 c 4
 210 -20 40 151 40 350 c 4
EndSplineSet
EndChar

StartChar: C
Encoding: 67 67 8
Width: 732
VWidth: 0
Flags: HMW
AnchorPoint: "ced" 425 0 basechar 0
AnchorPoint: "dot" 425 760 basechar 0
LayerCount: 2
Fore
SplineSet
210 350 m 0
 210 234 289 130 425 130 c 0
 509 130 574 172 617 228 c 1
 712 113 l 1
 647 38 551 -20 425 -20 c 0
 200 -20 40 151 40 350 c 0
 40 549 200 720 425 720 c 0
 551 720 647 662 712 587 c 1
 617 472 l 1
 574 528 508 570 425 570 c 0
 289 570 210 466 210 350 c 0
EndSplineSet
EndChar

StartChar: A
Encoding: 65 65 9
Width: 800
VWidth: 0
Flags: HMW
AnchorPoint: "ced" 697 0 basechar 0
AnchorPoint: "ring" 400 700 basechar 0
AnchorPoint: "dot" 400 760 basechar 0
LayerCount: 2
Fore
SplineSet
300 700 m 5
 500 700 l 1
 500 670 l 1
 300 670 l 5
 300 700 l 5
174 270 m 1
 606 270 l 1
 606 125 l 1
 174 125 l 1
 174 270 l 1
610 0 m 1
 360 670 l 1
 500 700 l 1
 790 0 l 1
 610 0 l 1
300 700 m 1
 440 670 l 1
 190 0 l 1
 10 0 l 1
 300 700 l 1
EndSplineSet
EndChar

StartChar: V
Encoding: 86 86 10
Width: 780
VWidth: 0
Flags: HMW
AnchorPoint: "ced" 390 0 basechar 0
AnchorPoint: "dot" 389 760 basechar 0
LayerCount: 2
Fore
SplineSet
480 0 m 5
 300 0 l 1
 300 30 l 1
 480 30 l 5
 480 0 l 5
190 700 m 1
 450 30 l 1
 300 0 l 1
 10 700 l 1
 190 700 l 1
480 0 m 5
 330 30 l 1
 590 700 l 1
 770 700 l 1
 480 0 l 5
EndSplineSet
EndChar

StartChar: G
Encoding: 71 71 11
Width: 782
VWidth: 0
Flags: HMW
AnchorPoint: "ced" 425 0 basechar 0
AnchorPoint: "dot" 425 760 basechar 0
LayerCount: 2
Fore
SplineSet
737 410 m 1
 737 270 l 1
 435 270 l 5
 435 410 l 5
 737 410 l 1
737 113 m 1
 578 113 l 1
 578 380 l 1
 737 380 l 1
 737 113 l 1
210 350 m 0
 210 229 294 140 425 140 c 0
 503 140 574 172 627 233 c 1
 737 113 l 1
 672 38 551 -20 425 -20 c 0
 200 -20 40 151 40 350 c 0
 40 549 200 720 425 720 c 0
 551 720 652 662 717 587 c 1
 602 482 l 1
 554 538 503 570 425 570 c 0
 294 570 210 471 210 350 c 0
EndSplineSet
EndChar

StartChar: D
Encoding: 68 68 12
Width: 810
VWidth: 0
Flags: HMW
AnchorPoint: "ced" 325 0 basechar 0
AnchorPoint: "dot" 345 760 basechar 0
LayerCount: 2
Fore
SplineSet
80 700 m 1
 380 700 l 1
 380 550 l 1
 80 550 l 1
 80 700 l 1
80 150 m 1
 380 150 l 1
 380 0 l 1
 80 0 l 1
 80 150 l 1
80 700 m 1
 250 700 l 1
 250 0 l 1
 80 0 l 1
 80 700 l 1
380 150 m 1
 511 150 590 229 590 350 c 0
 590 471 511 550 380 550 c 1
 380 700 l 1
 595 700 760 549 760 350 c 4
 760 151 595 0 380 0 c 1
 380 150 l 1
EndSplineSet
EndChar

StartChar: U
Encoding: 85 85 13
Width: 760
VWidth: 0
Flags: HMW
AnchorPoint: "ced" 380 0 basechar 0
AnchorPoint: "dot" 380 760 basechar 0
LayerCount: 2
Fore
SplineSet
535 300 m 5
 535 700 l 5
 710 700 l 1
 710 280 l 1
 535 300 l 5
50 280 m 1
 50 700 l 1
 225 700 l 1
 225 300 l 1
 50 280 l 1
535 300 m 5
 710 280 l 1
 710 111 559 -20 380 -20 c 0
 201 -20 50 111 50 280 c 1
 225 300 l 1
 225 211 293 145 380 145 c 0
 467 145 535 211 535 300 c 5
EndSplineSet
EndChar

StartChar: o
Encoding: 111 111 14
Width: 650
VWidth: 0
Flags: HMW
AnchorPoint: "ced" 325 0 basechar 0
AnchorPoint: "dot" 325 673 basechar 0
LayerCount: 2
Fore
SplineSet
195 260 m 0
 195 180 246 130 325 130 c 0
 404 130 455 180 455 260 c 0
 455 340 404 390 325 390 c 0
 246 390 195 340 195 260 c 0
30 260 m 0
 30 409 146 535 325 535 c 0
 504 535 620 409 620 260 c 0
 620 111 504 -15 325 -15 c 0
 146 -15 30 111 30 260 c 0
EndSplineSet
EndChar

StartChar: B
Encoding: 66 66 15
Width: 695
VWidth: 0
Flags: HMW
AnchorPoint: "ced" 307 0 basechar 0
AnchorPoint: "dot" 288 760 basechar 0
LayerCount: 2
Fore
SplineSet
365 423 m 1
 448 423 473 441 473 486 c 0
 473 531 448 550 365 550 c 1
 385 700 l 1
 514 700 643 643 643 509 c 0
 643 376 514 315 385 315 c 1
 365 423 l 1
60 700 m 1
 230 700 l 1
 230 0 l 1
 60 0 l 1
 60 700 l 1
60 135 m 1
 385 135 l 1
 405 0 l 1
 60 0 l 1
 60 135 l 1
60 700 m 1
 385 700 l 1
 365 550 l 1
 60 550 l 1
 60 700 l 1
60 423 m 1
 425 423 l 1
 385 293 l 1
 60 293 l 1
 60 423 l 1
385 135 m 1
 468 135 500 163 500 213 c 0
 500 263 468 293 385 293 c 1
 405 400 l 1
 534 400 670 324 670 185 c 4
 670 46 544 0 405 0 c 1
 385 135 l 1
EndSplineSet
EndChar

StartChar: K
Encoding: 75 75 16
Width: 745
VWidth: 0
Flags: HMW
AnchorPoint: "ced" 665 0 basechar 0
AnchorPoint: "dot" 335 760 basechar 0
LayerCount: 2
Fore
SplineSet
257 383 m 1
 444 389 l 1
 750 0 l 1
 556 0 l 1
 257 383 l 1
515 700 m 5
 730 700 l 1
 230 157 l 1
 65 180 l 1
 515 700 l 5
60 700 m 1
 230 700 l 1
 230 0 l 1
 60 0 l 1
 60 700 l 1
EndSplineSet
EndChar

StartChar: R
Encoding: 82 82 17
Width: 718
VWidth: 0
Flags: HMW
AnchorPoint: "ced" 615 0 basechar 0
AnchorPoint: "dot" 345 760 basechar 0
LayerCount: 2
Fore
SplineSet
385 353 m 1
 453 353 493 400 493 455 c 0
 493 510 453 550 385 550 c 1
 405 700 l 1
 554 700 663 600 663 455 c 0
 663 311 554 203 405 203 c 1
 385 353 l 1
65 700 m 1
 235 700 l 1
 235 0 l 1
 65 0 l 1
 65 700 l 1
100 700 m 1
 405 700 l 1
 385 550 l 1
 100 550 l 1
 100 700 l 1
100 353 m 1
 385 353 l 1
 405 203 l 1
 100 203 l 1
 100 353 l 1
333 250 m 1
 518 250 l 1
 708 0 l 1
 523 0 l 1
 333 250 l 1
EndSplineSet
EndChar

StartChar: P
Encoding: 80 80 18
Width: 643
VWidth: 0
Flags: HMW
AnchorPoint: "ced" 125 0 basechar 0
AnchorPoint: "dot" 315 760 basechar 0
LayerCount: 2
Fore
SplineSet
345 373 m 5
 413 373 453 409 453 464 c 4
 453 519 413 550 345 550 c 5
 365 700 l 5
 514 700 623 599 623 464 c 4
 623 330 514 223 365 223 c 5
 345 373 l 5
65 700 m 1
 235 700 l 1
 235 0 l 1
 65 0 l 1
 65 700 l 1
80 700 m 1
 365 700 l 5
 345 550 l 5
 80 550 l 1
 80 700 l 1
80 373 m 1
 345 373 l 5
 365 223 l 5
 80 223 l 1
 80 373 l 1
EndSplineSet
EndChar

StartChar: Q
Encoding: 81 81 19
Width: 849
VWidth: 0
Flags: HMW
AnchorPoint: "ced" 425 0 basechar 0
AnchorPoint: "dot" 425 760 basechar 0
LayerCount: 2
Fore
SplineSet
210 350 m 0
 210 234 292 130 425 130 c 0
 558 130 640 234 640 350 c 0
 640 466 558 570 425 570 c 0
 292 570 210 466 210 350 c 0
40 350 m 4
 40 559 210 720 425 720 c 0
 640 720 810 559 810 350 c 4
 810 141 640 -20 425 -20 c 0
 210 -20 40 141 40 350 c 4
705 -54 m 1
 407 244 l 1
 525 362 l 1
 823 65 l 1
 705 -54 l 1
EndSplineSet
EndChar

StartChar: J
Encoding: 74 74 20
Width: 599
VWidth: 0
Flags: HMW
AnchorPoint: "ced" 255 0 basechar 0
AnchorPoint: "dot" 245 760 basechar 0
LayerCount: 2
Fore
SplineSet
384 260 m 1
 384 700 l 1
 549 700 l 1
 549 260 l 1
 384 260 l 1
384 260 m 1
 549 260 l 1
 549 71 414 -20 255 -20 c 0
 147 -20 52 41 0 157 c 1
 129 246 l 1
 158 180 211 133 260 133 c 0
 327 133 384 171 384 260 c 1
EndSplineSet
EndChar

StartChar: S
Encoding: 83 83 21
Width: 625
VWidth: 0
Flags: HMW
AnchorPoint: "ced" 315 0 basechar 0
AnchorPoint: "dot" 335 760 basechar 0
LayerCount: 2
Fore
SplineSet
440 198 m 1
 603 215 l 1
 603 66 477 -20 328 -20 c 0
 179 -20 82 66 20 123 c 1
 108 243 l 1
 156 189 250 140 317 140 c 0
 387 140 440 150 440 198 c 1
227 505 m 1
 56 496 l 1
 56 642 186 710 330 710 c 0
 459 710 533 662 588 610 c 1
 502 489 l 1
 457 533 407 560 325 560 c 0
 257 560 227 532 227 505 c 1
360 435 m 0
 485.783203125 410 603 357 603 215 c 1
 440 198 l 1
 440 249 367.580078125 269.721679688 269 290 c 0
 156.663975214 313.107974112 56 369 56 496 c 1
 227 505 l 1
 227 476 269.9609375 452.895507812 360 435 c 0
EndSplineSet
EndChar

StartChar: M
Encoding: 77 77 22
Width: 910
VWidth: 0
Flags: HMW
AnchorPoint: "ced" 768 0 basechar 0
AnchorPoint: "dot" 459 760 basechar 0
LayerCount: 2
Fore
SplineSet
524 100 m 1
 386 100 l 1
 431 300 l 1
 479 300 l 1
 524 100 l 1
640 640 m 1
 610 700 l 5
 850 700 l 1
 850 680 l 1
 640 640 l 1
765 640 m 1
 524 100 l 1
 441 300 l 1
 610 700 l 5
 765 640 l 1
850 680 m 1
 850 0 l 1
 680 0 l 1
 680 680 l 1
 850 680 l 1
270 640 m 1
 60 680 l 1
 60 700 l 1
 300 700 l 1
 270 640 l 1
145 640 m 1
 300 700 l 1
 469 300 l 1
 386 100 l 1
 145 640 l 1
60 680 m 1
 230 680 l 1
 230 0 l 1
 60 0 l 1
 60 680 l 1
EndSplineSet
EndChar

StartChar: Y
Encoding: 89 89 23
Width: 680
VWidth: 0
Flags: HMW
AnchorPoint: "ced" 345 0 basechar 0
AnchorPoint: "dot" 337 760 basechar 0
LayerCount: 2
Fore
SplineSet
255 295 m 1
 425 295 l 1
 425 0 l 1
 255 0 l 1
 255 295 l 1
10 700 m 1
 190 700 l 1
 425 295 l 1
 295 217 l 1
 10 700 l 1
490 700 m 1
 670 700 l 1
 385 217 l 1
 255 295 l 1
 490 700 l 1
EndSplineSet
EndChar

StartChar: W
Encoding: 87 87 24
Width: 1065
VWidth: 0
Flags: HMW
AnchorPoint: "ced" 760 0 basechar 0
AnchorPoint: "dot" 530 760 basechar 0
LayerCount: 2
Fore
SplineSet
450 700 m 1
 615 700 l 1
 601 690 l 1
 464 690 l 1
 450 700 l 1
860 0 m 5
 660 0 l 5
 660 10 l 5
 860 10 l 5
 860 0 l 5
615 700 m 1
 810 10 l 5
 660 0 l 5
 464 690 l 1
 615 700 l 1
860 0 m 5
 710 10 l 5
 880 700 l 1
 1050 700 l 1
 860 0 l 5
405 0 m 1
 205 0 l 1
 205 10 l 1
 405 10 l 1
 405 0 l 1
185 700 m 1
 355 10 l 1
 205 0 l 1
 15 700 l 1
 185 700 l 1
405 0 m 1
 255 10 l 1
 450 700 l 1
 601 690 l 1
 405 0 l 1
EndSplineSet
EndChar

StartChar: N
Encoding: 78 78 25
Width: 790
VWidth: 0
Flags: HMW
AnchorPoint: "ced" 650 0 basechar 0
AnchorPoint: "dot" 400 760 basechar 0
LayerCount: 2
Fore
SplineSet
730 0 m 1
 530 0 l 1
 530 24 l 1
 730 14 l 1
 730 0 l 1
260 700 m 5
 260 680 l 5
 60 680 l 1
 60 700 l 1
 260 700 l 5
110 625 m 1
 260 700 l 1
 680 75 l 1
 530 0 l 1
 110 625 l 1
560 700 m 1
 730 700 l 1
 730 0 l 1
 560 20 l 1
 560 700 l 1
60 700 m 1
 230 680 l 1
 230 0 l 1
 60 0 l 1
 60 700 l 1
EndSplineSet
EndChar

StartChar: X
Encoding: 88 88 26
Width: 750
VWidth: 0
Flags: HMW
AnchorPoint: "ced" 645 0 basechar 0
AnchorPoint: "dot" 374 760 basechar 0
LayerCount: 2
Fore
SplineSet
35 700 m 1
 230 700 l 1
 735 0 l 1
 540 0 l 5
 35 700 l 1
520 700 m 5
 715 700 l 1
 210 0 l 1
 15 0 l 1
 520 700 l 5
EndSplineSet
EndChar

StartChar: Z
Encoding: 90 90 27
Width: 680
VWidth: 0
Flags: HMW
AnchorPoint: "ced" 515 0 basechar 0
AnchorPoint: "dot" 335 760 basechar 0
LayerCount: 2
Fore
SplineSet
615 580 m 1
 575 560 l 1
 605 700 l 1
 615 700 l 1
 615 580 l 1
45 120 m 1
 85 140 l 1
 55 0 l 1
 45 0 l 1
 45 120 l 1
65 700 m 1
 605 700 l 1
 575 550 l 1
 65 550 l 1
 65 700 l 1
85 150 m 1
 635 150 l 1
 635 0 l 1
 55 0 l 1
 85 150 l 1
410 560 m 1
 615 580 l 1
 250 140 l 5
 45 120 l 1
 410 560 l 1
EndSplineSet
EndChar

StartChar: l
Encoding: 108 108 28
Width: 265
VWidth: 0
Flags: HMW
AnchorPoint: "ced" 133 0 basechar 0
AnchorPoint: "dot" 133 793 basechar 0
LayerCount: 2
Fore
SplineSet
50 730 m 5
 215 730 l 1
 215 0 l 1
 50 0 l 5
 50 730 l 5
EndSplineSet
EndChar

StartChar: b
Encoding: 98 98 29
Width: 655
VWidth: 0
Flags: HMW
AnchorPoint: "ced" 356 0 basechar 0
AnchorPoint: "dot" 360 673 basechar 0
LayerCount: 2
Fore
SplineSet
215 260 m 0
 215 181 265 130 340 130 c 4
 415 130 460 181 460 260 c 0
 460 339 415 390 340 390 c 0
 265 390 215 339 215 260 c 0
180 260 m 0
 180 409 211 535 385 535 c 0
 509 535 625 419 625 260 c 0
 625 101 509 -15 385 -15 c 4
 221 -15 180 111 180 260 c 0
50 730 m 1
 215 730 l 1
 215 0 l 1
 50 0 l 1
 50 730 l 1
EndSplineSet
EndChar

StartChar: c
Encoding: 99 99 30
Width: 573
VWidth: 0
Flags: HMW
AnchorPoint: "ced" 325 -5 basechar 0
AnchorPoint: "dot" 325 673 basechar 0
LayerCount: 2
Fore
SplineSet
195 260 m 0
 195 196 248 135 325 135 c 0
 384 135 417 160 445 200 c 1
 553 92 l 1
 506 28 422 -15 325 -15 c 0
 148 -15 30 111 30 260 c 0
 30 409 148 535 325 535 c 0
 422 535 505 491 552 428 c 1
 445 320 l 1
 417 360 384 385 325 385 c 0
 248 385 195 326 195 260 c 0
EndSplineSet
EndChar

StartChar: d
Encoding: 100 100 31
Width: 655
VWidth: 0
Flags: HMW
AnchorPoint: "ced" 300 0 basechar 0
AnchorPoint: "dot" 295 673 basechar 0
LayerCount: 2
Fore
SplineSet
440 260 m 0
 440 339 390 390 315 390 c 0
 240 390 195 339 195 260 c 0
 195 181 240 131 315 131 c 0
 390 131 440 181 440 260 c 0
475 260 m 0
 475 111 434 -15 270 -15 c 4
 146 -15 30 101 30 260 c 0
 30 419 146 535 270 535 c 0
 444 535 475 409 475 260 c 0
605 730 m 1
 605 0 l 1
 440 0 l 1
 440 730 l 1
 605 730 l 1
EndSplineSet
EndChar

StartChar: k
Encoding: 107 107 32
Width: 615
VWidth: 0
Flags: HMW
AnchorPoint: "ced" 545 0 basechar 0
AnchorPoint: "dot" 345 673 basechar 0
LayerCount: 2
Fore
SplineSet
203 291 m 5
 385 311 l 5
 620 0 l 5
 422 0 l 5
 203 291 l 5
399 520 m 5
 600 520 l 5
 215 110 l 5
 60 154 l 5
 399 520 l 5
50 730 m 5
 215 730 l 5
 215 0 l 5
 50 0 l 5
 50 730 l 5
EndSplineSet
EndChar

StartChar: e
Encoding: 101 101 33
Width: 615
VWidth: 0
Flags: HMW
AnchorPoint: "ced" 330 0 basechar 0
AnchorPoint: "dot" 310 673 basechar 0
LayerCount: 2
Fore
SplineSet
580 260 m 1
 580 220 l 1
 415 220 l 1
 415 260 l 1
 580 260 l 1
415 220 m 1
 109 220 l 1
 109 317 l 1
 415 317 l 1
 415 220 l 1
415 260 m 1
 415 364 380 408 313 408 c 0
 246 408 195 364 195 260 c 1
 30 260 l 1
 30 419 141 535 320 535 c 0
 479 535 580 419 580 260 c 1
 415 260 l 1
30 260 m 1
 195 260 l 1
 195 166 259 118 320 118 c 0
 374 118 413 138 443 177 c 1
 563 92 l 1
 526 28 425 -15 328 -15 c 0
 159 -15 30 101 30 260 c 1
EndSplineSet
EndChar

StartChar: p
Encoding: 112 112 34
Width: 655
VWidth: 0
Flags: HMW
AnchorPoint: "ced" 355 0 basechar 0
AnchorPoint: "dot" 360 673 basechar 0
LayerCount: 2
Fore
SplineSet
215 260 m 4
 215 181 265 135 340 135 c 4
 415 135 460 181 460 260 c 4
 460 339 415 385 340 385 c 4
 265 385 215 339 215 260 c 4
180 260 m 4
 180 409 221 530 385 530 c 4
 509 530 625 419 625 260 c 4
 625 101 509 -10 385 -10 c 4
 211 -10 180 111 180 260 c 4
50 -200 m 5
 50 520 l 5
 215 520 l 5
 215 -200 l 5
 50 -200 l 5
EndSplineSet
EndChar

StartChar: q
Encoding: 113 113 35
Width: 655
VWidth: 0
Flags: HMW
AnchorPoint: "ced" 300 0 basechar 0
AnchorPoint: "dot" 295 673 basechar 0
LayerCount: 2
Fore
SplineSet
440 260 m 0
 440 339 390 390 315 390 c 0
 240 390 195 339 195 260 c 0
 195 181 240 130 315 130 c 0
 390 130 440 181 440 260 c 0
475 260 m 0
 475 111 444 -15 270 -15 c 4
 146 -15 30 101 30 260 c 0
 30 419 146 535 270 535 c 0
 434 535 475 409 475 260 c 0
605 -200 m 1
 440 -200 l 1
 440 520 l 1
 605 520 l 1
 605 -200 l 1
EndSplineSet
EndChar

StartChar: h
Encoding: 104 104 36
Width: 635
VWidth: 0
Flags: HMW
AnchorPoint: "ced" 525 0 basechar 0
AnchorPoint: "dot" 350 673 basechar 0
LayerCount: 2
Fore
SplineSet
590 320 m 5
 590 0 l 5
 425 0 l 5
 425 300 l 5
 590 320 l 5
50 730 m 5
 215 730 l 5
 215 0 l 5
 50 0 l 5
 50 730 l 5
425 300 m 5
 425 359 364 385 324 385 c 4
 275 385 215 360 215 280 c 5
 180 280 l 5
 180 419 241 530 400 530 c 4
 529 530 590 449 590 320 c 5
 425 300 l 5
EndSplineSet
EndChar

StartChar: n
Encoding: 110 110 37
Width: 635
VWidth: 0
Flags: HMW
AnchorPoint: "ced" 530 0 basechar 0
AnchorPoint: "dot" 340 673 basechar 0
LayerCount: 2
Fore
SplineSet
590 320 m 5
 590 0 l 5
 425 0 l 5
 425 300 l 5
 590 320 l 5
50 520 m 5
 215 520 l 5
 215 0 l 5
 50 0 l 5
 50 520 l 5
425 300 m 5
 425 359 364 385 324 385 c 4
 275 385 215 360 215 280 c 5
 180 280 l 5
 180 419 241 530 400 530 c 4
 529 530 590 449 590 320 c 5
 425 300 l 5
EndSplineSet
EndChar

StartChar: m
Encoding: 109 109 38
Width: 900
VWidth: 0
Flags: HMW
AnchorPoint: "ced" 795 0 basechar 0
AnchorPoint: "dot" 450 673 basechar 0
LayerCount: 2
Fore
SplineSet
855 320 m 1
 855 0 l 1
 690 0 l 1
 690 300 l 1
 855 320 l 1
690 300 m 1
 690 352 675 390 620 390 c 0
 557 390 536 360 536 280 c 5
 471 280 l 5
 471 419 566 530 690 530 c 0
 824 530 855 449 855 320 c 1
 690 300 l 1
536 330 m 5
 536 0 l 5
 377 0 l 5
 377 300 l 5
 536 330 l 5
50 520 m 1
 215 520 l 1
 215 0 l 1
 50 0 l 1
 50 520 l 1
377 300 m 5
 377 352 360 390 305 390 c 0
 242 390 215 350 215 280 c 1
 180 280 l 1
 180 419 251 530 375 530 c 0
 519 530 536 449 536 320 c 5
 377 300 l 5
EndSplineSet
EndChar

StartChar: r
Encoding: 114 114 39
Width: 410
VWidth: 0
Flags: HMW
AnchorPoint: "ced" 140 0 basechar 0
AnchorPoint: "dot" 210 673 basechar 0
LayerCount: 2
Fore
SplineSet
50 520 m 1
 215 520 l 1
 215 0 l 1
 50 0 l 1
 50 520 l 1
395 375 m 1
 370 375 l 2
 276 375 215 340 215 270 c 1
 180 270 l 1
 180 429 236 520 395 520 c 5
 395 375 l 1
EndSplineSet
EndChar

StartChar: u
Encoding: 117 117 40
Width: 635
VWidth: 0
Flags: HMW
AnchorPoint: "ced" 285 0 basechar 0
AnchorPoint: "dot" 305 673 basechar 0
LayerCount: 2
Fore
SplineSet
45 200 m 1
 45 520 l 1
 210 520 l 1
 210 220 l 1
 45 200 l 1
585 0 m 1
 420 0 l 1
 420 520 l 1
 585 520 l 1
 585 0 l 1
210 220 m 1
 210 161 271 135 311 135 c 0
 360 135 420 160 420 240 c 1
 455 240 l 1
 455 101 394 -10 235 -10 c 0
 106 -10 45 71 45 200 c 1
 210 220 l 1
EndSplineSet
EndChar

StartChar: g
Encoding: 103 103 41
Width: 655
VWidth: 0
Flags: HMW
AnchorPoint: "dot" 300 673 basechar 0
LayerCount: 2
Fore
SplineSet
440 260 m 0
 440 339 390 390 315 390 c 0
 240 390 190 339 190 260 c 0
 190 181 240 130 315 130 c 0
 390 130 440 181 440 260 c 0
475 260 m 0
 475 111 434 -15 270 -15 c 0
 146 -15 25 101 25 260 c 0
 25 419 146 535 270 535 c 0
 444 535 475 409 475 260 c 0
312 -86 m 1
 323 -233 l 5
 166 -233 99 -192 22 -108 c 1
 148 -12 l 1
 182 -66 249 -86 312 -86 c 1
605 20 m 1
 440 20 l 1
 440 520 l 1
 605 520 l 1
 605 20 l 1
440 20 m 1
 605 20 l 1
 605 -119 472 -233 323 -233 c 5
 312 -86 l 1
 369 -86 440 -39 440 20 c 1
EndSplineSet
EndChar

StartChar: i
Encoding: 105 105 42
Width: 255
VWidth: 0
Flags: HMW
AnchorPoint: "ced" 125 0 basechar 0
LayerCount: 2
Fore
SplineSet
29 682 m 4
 29 736 73 780 127 780 c 4
 181 780 225 736 225 682 c 4
 225 628 181 584 127 584 c 4
 73 584 29 628 29 682 c 4
45 520 m 1
 210 520 l 1
 210 0 l 1
 45 0 l 1
 45 520 l 1
EndSplineSet
EndChar

StartChar: t
Encoding: 116 116 43
Width: 410
VWidth: 0
Flags: HMW
AnchorPoint: "ced" 267 0 basechar 0
AnchorPoint: "dot" 305 673 basechar 0
LayerCount: 2
Fore
SplineSet
0 520 m 1
 360 520 l 1
 360 375 l 1
 0 375 l 1
 0 520 l 1
245 185 m 5
 80 160 l 1
 80 673 l 1
 245 673 l 1
 245 185 l 5
278 145 m 5
 294 145 311 148 327 160 c 5
 402 42 l 1
 375 13 320 -10 238 -10 c 1
 278 145 l 5
245 185 m 5
 245 158 263 145 278 145 c 5
 238 -10 l 1
 119 -10 80 71 80 160 c 1
 245 185 l 5
EndSplineSet
EndChar

StartChar: a
Encoding: 97 97 44
Width: 580
VWidth: 0
Flags: HMW
AnchorPoint: "ced" 455 0 basechar 0
AnchorPoint: "ring" 275 673 basechar 0
AnchorPoint: "dot" 275 673 basechar 0
LayerCount: 2
Fore
SplineSet
330 302 m 1
 420 302 l 1
 420 209 l 5
 360 209 l 5
 330 302 l 1
370 310 m 1
 370 365 329 395 268 395 c 1
 284 530 l 1
 427 530 535 454 535 330 c 1
 370 310 l 1
268 395 m 1
 194 395 167 369 136 342 c 1
 50 450 l 1
 107 499 172 530 284 530 c 1
 268 395 l 1
370 310 m 1
 535 330 l 1
 535 0 l 1
 370 0 l 1
 370 310 l 1
198 157 m 1
 198 123 227 105 260 105 c 0
 318 105 370 120 370 200 c 1
 405 180 l 1
 405 71 329 -10 200 -10 c 0
 101 -10 23 41 23 150 c 1
 198 157 l 1
330 302 m 1
 360 209 l 5
 231 209 198 192 198 157 c 1
 23 150 l 1
 23 285 143 302 330 302 c 1
EndSplineSet
EndChar

StartChar: j
Encoding: 106 106 45
Width: 255
VWidth: 0
Flags: HMW
LayerCount: 2
Fore
SplineSet
33 682 m 4
 33 736 77 780 131 780 c 4
 185 780 229 736 229 682 c 4
 229 628 185 584 131 584 c 4
 77 584 33 628 33 682 c 4
49 520 m 5
 214 520 l 5
 214 -60 l 5
 49 -30 l 5
 49 520 l 5
12 -65 m 5
 42 -210 l 5
 -15 -210 -85 -192 -112 -158 c 5
 -42 -37 l 5
 -25 -56 -10 -65 12 -65 c 5
49 -30 m 5
 214 -60 l 5
 214 -179 131 -210 42 -210 c 5
 12 -65 l 5
 39 -65 49 -57 49 -30 c 5
EndSplineSet
EndChar

StartChar: s
Encoding: 115 115 46
Width: 520
VWidth: 0
Flags: HMW
AnchorPoint: "ced" 265 0 basechar 0
AnchorPoint: "dot" 265 673 basechar 0
LayerCount: 2
Fore
SplineSet
330 158 m 1
 495 162 l 5
 495 43 404 -14 265 -14 c 0
 156 -14 63 19 8 86 c 1
 88 193 l 1
 134 146 202 122 250 122 c 0
 298 122 330 133 330 158 c 1
200 365 m 1
 40 363 l 1
 40 479 145 535 264 535 c 0
 363 535 446 496 488 448 c 1
 416 345 l 1
 378 378 324 400 267 400 c 0
 229 400 200 391 200 365 c 1
330 326 m 0
 427.529296875 310.607421875 495 262 495 162 c 5
 330 158 l 1
 330 192 288.4453125 188.734375 210 202 c 0
 126.770507812 216.07421875 40 265 40 363 c 1
 200 365 l 1
 200 335 262.537091116 336.647345247 330 326 c 0
EndSplineSet
EndChar

StartChar: v
Encoding: 118 118 47
Width: 590
VWidth: 0
Flags: HMW
AnchorPoint: "ced" 287 0 basechar 0
AnchorPoint: "dot" 273 673 basechar 0
LayerCount: 2
Fore
SplineSet
365 0 m 5
 225 0 l 1
 225 5 l 1
 365 5 l 5
 365 0 l 5
225 5 m 1
 405 520 l 1
 575 520 l 1
 365 0 l 5
 225 5 l 1
15 520 m 1
 185 520 l 1
 365 5 l 5
 225 0 l 1
 15 520 l 1
EndSplineSet
EndChar

StartChar: f
Encoding: 102 102 48
Width: 375
VWidth: 0
Flags: HMW
AnchorPoint: "ced" 160 0 basechar 0
LayerCount: 2
Fore
SplineSet
10 520 m 5
 363 520 l 5
 363 375 l 5
 10 375 l 5
 10 520 l 5
245 540 m 5
 245 0 l 5
 80 0 l 5
 80 590 l 5
 245 540 l 5
283 595 m 5
 267 740 l 5
 329 740 374 718 400 688 c 5
 320 577 l 5
 310 587 302 595 283 595 c 5
245 540 m 5
 80 590 l 5
 80 669 148 740 267 740 c 5
 283 595 l 5
 248 595 245 569 245 540 c 5
EndSplineSet
Substitution2: "fi-1" fi
EndChar

StartChar: y
Encoding: 121 121 49
Width: 579
VWidth: 0
Flags: HMW
AnchorPoint: "dot" 305 673 basechar 0
LayerCount: 2
Fore
SplineSet
-1 520 m 1
 169 520 l 1
 344 25 l 5
 238 -40 l 5
 -1 520 l 1
143 -65 m 5
 168 -210 l 5
 111 -210 42 -184 15 -150 c 5
 67 -32 l 5
 91 -56 114 -65 143 -65 c 5
224 -5 m 6
 409 520 l 1
 574 520 l 1
 359 -60 l 6
 328.376953125 -156.0078125 257 -210 168 -210 c 5
 143 -65 l 5
 170 -65 207.297851562 -52.3974609375 224 -5 c 6
EndSplineSet
EndChar

StartChar: w
Encoding: 119 119 50
Width: 795
VWidth: 0
Flags: HMW
AnchorPoint: "ced" 565 0 basechar 0
AnchorPoint: "dot" 408 673 basechar 0
LayerCount: 2
Fore
SplineSet
530 0 m 1
 620 520 l 1
 785 520 l 1
 655 0 l 1
 530 0 l 1
360 520 m 1
 495 520 l 1
 615 0 l 1
 480 0 l 1
 360 520 l 1
200 0 m 1
 320 520 l 1
 455 520 l 5
 335 0 l 1
 200 0 l 1
30 520 m 1
 195 520 l 1
 285 0 l 1
 160 0 l 1
 30 520 l 1
EndSplineSet
EndChar

StartChar: x
Encoding: 120 120 51
Width: 615
VWidth: 0
Flags: HMW
AnchorPoint: "ced" 510 0 basechar 0
AnchorPoint: "dot" 280 673 basechar 0
LayerCount: 2
Fore
SplineSet
15 0 m 1
 390 520 l 5
 580 520 l 1
 205 0 l 1
 15 0 l 1
35 520 m 1
 225 520 l 1
 600 0 l 1
 410 0 l 5
 35 520 l 1
EndSplineSet
EndChar

StartChar: z
Encoding: 122 122 52
Width: 570
VWidth: 0
Flags: HMW
AnchorPoint: "ced" 460 0 basechar 0
AnchorPoint: "dot" 290 673 basechar 0
LayerCount: 2
Fore
SplineSet
40 115 m 1
 80 135 l 1
 60 0 l 1
 40 0 l 1
 40 115 l 1
80 145 m 1
 530 145 l 1
 530 0 l 1
 60 0 l 1
 80 145 l 1
500 520 m 1
 520 520 l 1
 520 405 l 1
 480 385 l 1
 500 520 l 1
60 520 m 1
 500 520 l 1
 480 375 l 1
 60 375 l 1
 60 520 l 1
300 385 m 1
 520 405 l 1
 260 135 l 5
 40 115 l 1
 300 385 l 1
EndSplineSet
EndChar

StartChar: zero
Encoding: 48 48 53
Width: 600
VWidth: 0
Flags: HMW
LayerCount: 2
Fore
SplineSet
205 350 m 0
 205 228 228 140 300 140 c 0
 372 140 395 228 395 350 c 0
 395 472 372 560 300 560 c 0
 228 560 205 472 205 350 c 0
35 350 m 4
 35 589 145 710 300 710 c 0
 455 710 565 589 565 350 c 4
 565 111 455 -10 300 -10 c 0
 145 -10 35 111 35 350 c 4
EndSplineSet
EndChar

StartChar: one
Encoding: 49 49 54
Width: 600
VWidth: 0
Flags: HMW
LayerCount: 2
Fore
SplineSet
490 700 m 1
 490 676 l 1
 370 676 l 1
 370 700 l 1
 490 700 l 1
370 700 m 1
 451 556 l 1
 101 476 l 5
 90 610 l 1
 370 700 l 1
320 670 m 1
 490 700 l 1
 490 0 l 1
 320 0 l 1
 320 670 l 1
EndSplineSet
EndChar

StartChar: six
Encoding: 54 54 55
Width: 600
VWidth: 0
Flags: HMW
LayerCount: 2
Fore
SplineSet
200 240 m 1
 105 240 l 1
 105 369 231 475 360 475 c 1
 300 350 l 1
 232 350 200 305 200 240 c 1
200 240 m 0
 200 175 232 130 300 130 c 0
 368 130 400 175 400 240 c 0
 400 305 368 350 300 350 c 1
 360 475 l 1
 459 475 560 389 560 240 c 0
 560 71 449 -10 300 -10 c 0
 151 -10 40 71 40 240 c 0
 40 347.265625 77.1361381465 387.966868088 112 437 c 2
 299 700 l 1
 479 700 l 1
 237.537109375 391.75390625 l 5
 185.174804688 374.909179688 l 1
 146.650390625 345.858398438 200 291.161132812 200 240 c 0
EndSplineSet
EndChar

StartChar: period
Encoding: 46 46 56
Width: 230
VWidth: 0
Flags: HMW
LayerCount: 2
Fore
SplineSet
10 95 m 4
 10 153 57 200 115 200 c 4
 173 200 220 153 220 95 c 4
 220 37 173 -10 115 -10 c 4
 57 -10 10 37 10 95 c 4
EndSplineSet
EndChar

StartChar: comma
Encoding: 44 44 58
Width: 254
VWidth: 0
Flags: HMW
LayerCount: 2
Fore
SplineSet
20 95 m 0
 20 153 68 200 130 200 c 0
 194 200 240 155 240 97 c 0
 240 59.4482421875 217.928710938 22.74609375 198.041015625 -2.3505859375 c 2
 100 -130 l 1
 10 -130 l 1
 72.1806640625 0.8505859375 l 1
 36.572265625 22.9970703125 20 60.55859375 20 95 c 0
EndSplineSet
EndChar

StartChar: two
Encoding: 50 50 60
Width: 600
VWidth: 0
Flags: HMW
LayerCount: 2
Fore
SplineSet
50 115 m 1
 100 115 l 1
 100 0 l 1
 50 0 l 1
 50 115 l 1
405 487 m 1
 405 526 372 565 305 565 c 4
 226 565 182 515 147 432 c 1
 30 513 l 1
 72 619 157 710 295 710 c 0
 454 710 560 605 560 486 c 1
 405 487 l 1
100 0 m 1
 100 145 l 1
 560 145 l 1
 560 0 l 1
 100 0 l 1
406 251 m 2
 251 115 l 1
 50 115 l 1
 257 300 l 2
 354.546514234 387.179251852 405 426 405 487 c 1
 560 486 l 1
 560 396 510.372078625 342.578081891 406 251 c 2
EndSplineSet
EndChar

StartChar: three
Encoding: 51 51 62
Width: 600
VWidth: 0
Flags: HMW
LayerCount: 2
Fore
SplineSet
240 409 m 1
 427 409 560 347 560 197 c 0
 560 57 437 -10 290 -10 c 0
 200 -10 86 24 20 109 c 1
 119 207 l 1
 160 152 232 134 280 134 c 0
 353 134 395 168 395 217 c 0
 395 266 343 305 240 305 c 1
 240 409 l 1
42 592 m 1
 91 650 166 710 300 710 c 4
 414 710 530 649 530 530 c 4
 530 381 414 325 240 325 c 1
 240 430 l 1
 310 430 365 468 365 506 c 0
 365 544 322 565 280 565 c 0
 235 565 181 542 141 494 c 1
 42 592 l 1
EndSplineSet
EndChar

StartChar: eight
Encoding: 56 56 63
Width: 600
VWidth: 0
Flags: HMW
LayerCount: 2
Fore
SplineSet
220 503 m 0
 220 468 254 440 300 440 c 0
 346 440 380 468 380 503 c 0
 380 538 346 566 300 566 c 0
 254 566 220 538 220 503 c 0
195 215 m 4
 195 160 253 134 300 134 c 0
 347 134 405 160 405 215 c 4
 405 270 347 296 300 296 c 0
 253 296 195 270 195 215 c 4
60 520 m 0
 60 629 176 710 300 710 c 0
 424 710 540 629 540 520 c 0
 540 411 424 325 300 325 c 0
 176 325 60 411 60 520 c 0
30 197 m 0
 30 347 163 409 300 409 c 0
 437 409 570 347 570 197 c 0
 570 57 437 -10 300 -10 c 0
 163 -10 30 57 30 197 c 0
EndSplineSet
EndChar

StartChar: four
Encoding: 52 52 64
Width: 600
VWidth: 0
Flags: HMW
LayerCount: 2
Fore
SplineSet
15 250 m 1
 115 250 l 1
 35 105 l 1
 15 105 l 1
 15 250 l 1
35 250 m 1
 570 250 l 1
 570 105 l 1
 35 105 l 1
 35 250 l 1
500 700 m 1
 500 676 l 1
 265 676 l 1
 265 700 l 5
 500 700 l 1
265 700 m 1
 410 659 l 1
 140 200 l 1
 15 250 l 1
 265 700 l 1
335 680 m 1
 500 700 l 1
 500 0 l 1
 335 0 l 1
 335 680 l 1
EndSplineSet
EndChar

StartChar: five
Encoding: 53 53 65
Width: 600
VWidth: 0
Flags: HMW
LayerCount: 2
Fore
SplineSet
50 361 m 1
 60 376 l 1
 150 496 l 1
 190 281 l 1
 50 361 l 1
340 465 m 1
 467 465 560 380 560 230 c 0
 560 70 457 -20 300 -20 c 0
 210 -20 86 4 10 129 c 1
 125 232 l 1
 166 177 221 136 284 136 c 0
 359 136 395 181 395 240 c 0
 395 309 354 336 301 336 c 1
 340 465 l 1
50 361 m 1
 50 700 l 1
 205 700 l 1
 205 321 l 1
 50 361 l 1
50 700 m 1
 510 700 l 1
 510 555 l 1
 50 555 l 1
 50 700 l 1
301 336 m 1
 264 336 229 322 190 281 c 1
 120 331 l 5
 180 430 241 465 340 465 c 1
 301 336 l 1
EndSplineSet
EndChar

StartChar: seven
Encoding: 55 55 66
Width: 600
VWidth: 0
Flags: HMW
LayerCount: 2
Fore
SplineSet
556 610 m 1
 271 0 l 5
 114 0 l 5
 399 610 l 1
 556 610 l 1
505 700 m 1
 556 700 l 1
 556 610 l 1
 505 610 l 1
 505 700 l 1
30 700 m 1
 505 700 l 1
 505 555 l 1
 30 555 l 1
 30 700 l 1
EndSplineSet
EndChar

StartChar: exclam
Encoding: 33 33 67
Width: 270
VWidth: 0
Flags: HMW
LayerCount: 2
Fore
SplineSet
46 490 m 1
 224 490 l 1
 197 250 l 1
 73 250 l 1
 46 490 l 1
46 730 m 1
 224 730 l 1
 224 490 l 1
 46 490 l 1
 46 730 l 1
EndSplineSet
Refer: 56 46 S 1 0 0 1 20 0 2
EndChar

StartChar: quotesingle
Encoding: 39 39 69
Width: 240
VWidth: 0
Flags: HMW
LayerCount: 2
Fore
SplineSet
35 655 m 0
 35 702 73 740 120 740 c 0
 167 740 205 702 205 655 c 0
 205 646 204.567382812 634.483398438 201 624 c 6
 152 480 l 1
 88 480 l 1
 39 624 l 6
 35.4326171875 634.483398438 35 646 35 655 c 0
EndSplineSet
EndChar

StartChar: numbersign
Encoding: 35 35 70
Width: 810
VWidth: 0
Flags: HMW
LayerCount: 2
Fore
SplineSet
730 290 m 5
 730 135 l 1
 40 135 l 1
 40 290 l 5
 730 290 l 5
770 565 m 5
 770 410 l 1
 80 410 l 1
 80 565 l 5
 770 565 l 5
525 700 m 1
 685 700 l 1
 565 0 l 1
 405 0 l 1
 525 700 l 1
245 700 m 1
 405 700 l 1
 285 0 l 1
 125 0 l 1
 245 700 l 1
EndSplineSet
EndChar

StartChar: percent
Encoding: 37 37 71
Width: 940
VWidth: 0
Flags: HMW
LayerCount: 2
Fore
SplineSet
680 180 m 0
 680 155 698 135 720 135 c 0
 742 135 760 155 760 180 c 0
 760 205 742 225 720 225 c 0
 698 225 680 205 680 180 c 0
180 520 m 0
 180 495 198 475 220 475 c 0
 242 475 260 495 260 520 c 0
 260 545 242 565 220 565 c 0
 198 565 180 545 180 520 c 0
30 520 m 0
 30 625 115 710 220 710 c 0
 325 710 410 625 410 520 c 0
 410 415 325 330 220 330 c 0
 115 330 30 415 30 520 c 0
530 180 m 0
 530 285 615 370 720 370 c 0
 825 370 910 285 910 180 c 0
 910 75 825 -10 720 -10 c 0
 615 -10 530 75 530 180 c 0
610 700 m 1
 770 700 l 1
 330 0 l 1
 170 0 l 1
 610 700 l 1
EndSplineSet
EndChar

StartChar: dollar
Encoding: 36 36 72
Width: 600
VWidth: 0
Flags: HMW
LayerCount: 2
Fore
SplineSet
281 780 m 1
 351 780 l 1
 351 -80 l 1
 281 -80 l 1
 281 780 l 1
EndSplineSet
Refer: 21 83 N 1 0 0 1 -10 0 2
EndChar

StartChar: asterisk
Encoding: 42 42 73
Width: 324
VWidth: 0
Flags: HMW
LayerCount: 2
Fore
SplineSet
57.0966796875 461.698242188 m 1
 7.095703125 548.30078125 l 1
 144.5 610.310546875 l 1
 266.903320312 698.301757812 l 1
 316.904296875 611.69921875 l 1
 179.5 549.689453125 l 1
 57.0966796875 461.698242188 l 1
7.095703125 611.698242188 m 1
 57.095703125 698.301757812 l 1
 179.5 610.310546875 l 1
 316.904296875 548.301757812 l 1
 266.904296875 461.698242188 l 1
 144.5 549.689453125 l 1
 7.095703125 611.698242188 l 1
112 730 m 1
 212 730 l 1
 197 580 l 1
 212 430 l 1
 112 430 l 1
 127 580 l 1
 112 730 l 1
EndSplineSet
EndChar

StartChar: slash
Encoding: 47 47 74
Width: 430
VWidth: 0
Flags: HMW
LayerCount: 2
Fore
SplineSet
300 780 m 1
 450 780 l 1
 130 -80 l 5
 -20 -80 l 1
 300 780 l 1
EndSplineSet
EndChar

StartChar: ampersand
Encoding: 38 38 75
Width: 715
VWidth: 0
Flags: HMW
LayerCount: 2
Fore
SplineSet
265 403 m 0
 341.7890625 423.8046875 385 490 385 520 c 1
 545 530 l 1
 545 435 427.557617188 357.01171875 335 335 c 0
 237.270507812 311.758789062 210 264 210 210 c 1
 40 180 l 1
 40 320 159.364257812 374.379882812 265 403 c 0
285 530 m 5
 125 540 l 1
 125 649 226 720 335 720 c 0
 444 720 545 649 545 530 c 1
 385 520 l 5
 385 564 367 585 335 585 c 0
 308 585 285 564 285 530 c 5
260 291 m 2
 172.19140625 395.72265625 125 460 125 540 c 1
 285 530 l 1
 285 489 317.31640625 437.349609375 400 339 c 2
 685 0 l 1
 505 0 l 1
 260 291 l 2
554 359 m 1
 670 264 l 1
 610 105 489 -20 300 -20 c 0
 151 -20 40 51 40 180 c 1
 210 210 l 1
 210 161 253 125 330 125 c 0
 417 125 514 210 554 359 c 1
EndSplineSet
EndChar

StartChar: parenleft
Encoding: 40 40 76
Width: 275
VWidth: 0
Flags: HMW
LayerCount: 2
Fore
SplineSet
170 750 m 5
 270 700 l 5
 150 440 150 90 270 -170 c 5
 170 -220 l 5
 -50 90 -50 440 170 750 c 5
EndSplineSet
EndChar

StartChar: hyphen
Encoding: 45 45 78
Width: 430
VWidth: 0
Flags: HMW
LayerCount: 2
Fore
SplineSet
65 375 m 5
 365 375 l 5
 365 220 l 1
 65 220 l 1
 65 375 l 5
EndSplineSet
EndChar

StartChar: plus
Encoding: 43 43 79
Width: 510
VWidth: 0
Flags: HMW
LayerCount: 2
Fore
SplineSet
335 589 m 5
 335 134 l 5
 175 134 l 1
 175 589 l 1
 335 589 l 5
30 439 m 1
 480 439 l 1
 480 284 l 1
 30 284 l 1
 30 439 l 1
EndSplineSet
EndChar

StartChar: equal
Encoding: 61 61 80
Width: 510
VWidth: 0
Flags: HMW
LayerCount: 2
Fore
SplineSet
30 295 m 1
 480 295 l 1
 480 180 l 1
 30 180 l 1
 30 295 l 1
30 530 m 5
 480 530 l 5
 480 415 l 1
 30 415 l 1
 30 530 l 5
EndSplineSet
EndChar

StartChar: backslash
Encoding: 92 92 81
Width: 430
VWidth: 0
Flags: HMW
LayerCount: 2
Fore
SplineSet
130 780 m 1
 450 -80 l 1
 300 -80 l 5
 -20 780 l 1
 130 780 l 1
EndSplineSet
EndChar

StartChar: less
Encoding: 60 60 82
Width: 510
VWidth: 0
Flags: HMW
LayerCount: 2
Fore
SplineSet
30 415 m 5
 480 225 l 5
 480 110 l 5
 30 300 l 5
 30 415 l 5
30 415 m 5
 480 605 l 5
 480 490 l 5
 30 300 l 5
 30 415 l 5
EndSplineSet
EndChar

StartChar: question
Encoding: 63 63 84
Width: 555
VWidth: 0
Flags: HMW
LayerCount: 2
Fore
SplineSet
289 442 m 0
 334.326061148 466.013842986 345 496 345 526 c 1
 515 546 l 1
 515 451 486.641601562 407.241210938 429 371 c 4
 382.3203125 341.651367188 365 331 365 250 c 1
 205 250 l 1
 185 400 229.845498283 410.659819977 289 442 c 0
345 526 m 1
 345 558 318 585 269 585 c 0
 216 585 187 570 152 507 c 1
 40 593 l 1
 82 679 152 740 285 740 c 0
 449 740 515 645 515 546 c 1
 345 526 l 1
EndSplineSet
Refer: 56 46 N 1 0 0 1 169 0 2
EndChar

StartChar: at
Encoding: 64 64 85
Width: 1050
VWidth: 0
Flags: HMW
LayerCount: 2
Fore
SplineSet
620 260 m 0
 620 339 565 385 510 385 c 4
 455 385 405 339 405 260 c 0
 405 181 455 135 510 135 c 0
 565 135 620 181 620 260 c 0
655 260 m 0
 655 111 609 -10 470 -10 c 0
 351 -10 240 101 240 260 c 0
 240 419 351 530 470 530 c 0
 619 530 655 409 655 260 c 0
780 520 m 1
 780 120 l 1
 620 100 l 1
 620 520 l 1
 780 520 l 1
55 260 m 0
 55 519 246 730 525 730 c 0
 784 730 995 559 995 300 c 0
 995 63.638671875 883.768554688 -10.2880859375 777.8671875 -10.2880859375 c 0
 653.793945312 -10.2880859375 620 43.19921875 620 100 c 1
 780 120 l 1
 780 60.53515625 790.893554688 32.859375 827.37890625 32.859375 c 0
 878.646484375 32.859375 964 115.765625 964 300 c 0
 964 543 768 701 525 701 c 0
 262 701 86 503 86 260 c 0
 86 17 282 -181 525 -181 c 1
 525 -210 l 1
 266 -210 55 1 55 260 c 0
EndSplineSet
EndChar

StartChar: bracketleft
Encoding: 91 91 86
Width: 315
VWidth: 0
Flags: HMW
LayerCount: 2
Fore
SplineSet
145 584 m 1
 145 730 l 1
 295 730 l 1
 295 584 l 1
 145 584 l 1
145 -200 m 1
 145 -54 l 5
 295 -54 l 5
 295 -200 l 1
 145 -200 l 1
45 730 m 1
 196 730 l 1
 196 -200 l 1
 45 -200 l 1
 45 730 l 1
EndSplineSet
EndChar

StartChar: asciicircum
Encoding: 94 94 88
Width: 510
VWidth: 0
Flags: HMW
LayerCount: 2
Fore
SplineSet
340 430 m 1
 170 730 l 5
 340 730 l 5
 490 430 l 1
 340 430 l 1
170 730 m 1
 340 730 l 1
 170 430 l 1
 20 430 l 1
 170 730 l 1
EndSplineSet
EndChar

StartChar: underscore
Encoding: 95 95 89
Width: 600
VWidth: 0
Flags: HMW
LayerCount: 2
Fore
SplineSet
-2 -40 m 5
 602 -40 l 5
 602 -200 l 1
 -2 -200 l 1
 -2 -40 l 5
EndSplineSet
EndChar

StartChar: braceleft
Encoding: 123 123 90
Width: 369
VWidth: 0
Flags: HMW
LayerCount: 2
Fore
SplineSet
55 325 m 1
 73 325 l 1
 73 205 l 1
 55 205 l 1
 55 325 l 1
137 150 m 5
 257 150 l 5
 257 -10 l 1
 137 -50 l 1
 137 150 l 5
137 580 m 1
 257 540 l 1
 257 380 l 1
 137 380 l 1
 137 580 l 1
137 380 m 1
 257 380 l 1
 257 281 180 230 61 230 c 5
 55 325 l 1
 123 325 137 340 137 380 c 1
137 150 m 1
 137 190 123 205 55 205 c 1
 61 300 l 1
 180 300 257 249 257 150 c 1
 137 150 l 1
257 540 m 1
 137 580 l 1
 137 659 214 730 333 730 c 1
 339 615 l 1
 261 615 257 580 257 540 c 1
257 -10 m 1
 257 -50 261 -85 339 -85 c 1
 333 -200 l 1
 214 -200 137 -129 137 -50 c 1
 257 -10 l 1
EndSplineSet
EndChar

StartChar: bar
Encoding: 124 124 92
Width: 320
VWidth: 0
Flags: HMW
LayerCount: 2
Fore
SplineSet
205 780 m 5
 205 -80 l 5
 115 -80 l 1
 115 780 l 1
 205 780 l 5
EndSplineSet
EndChar

StartChar: asciitilde
Encoding: 126 126 93
Width: 470
VWidth: 0
Flags: HMW
LayerCount: 2
Fore
SplineSet
125 164 m 1
 45 194 l 1
 49.5654296875 272.260742188 96.859375 320.638671875 148.23046875 320.638671875 c 0
 211.844726562 320.638671875 257.365234375 256.962890625 301.607421875 256.962890625 c 0
 346.108398438 256.962890625 355 286.58984375 355 324 c 1
 425 294 l 1
 420.434570312 205.739257812 373.989257812 167.361328125 323.821289062 167.361328125 c 0
 262.262695312 167.361328125 219.831054688 231.037109375 177.247070312 231.037109375 c 4
 133.446289062 231.037109375 125 201.41015625 125 164 c 1
EndSplineSet
EndChar

StartChar: tilde
Encoding: 732 732 98
Width: 500
VWidth: 0
Flags: HMW
AnchorPoint: "dot" 250 610 basechar 0
LayerCount: 2
Fore
SplineSet
140 600 m 5
 49 620 l 1
 53.5654296875 698.260742188 111.859375 746.638671875 163.23046875 746.638671875 c 0
 226.844726562 746.638671875 262.365234375 702.962890625 306.607421875 702.962890625 c 0
 341.108398438 702.962890625 370 712.58984375 370 740 c 1
 460 720 l 1
 455.434570312 631.739257812 388.989257812 593.361328125 338.821289062 593.361328125 c 0
 277.262695312 593.361328125 244.831054688 637.037109375 202.247070312 637.037109375 c 4
 168.446289062 637.037109375 140 627.41015625 140 600 c 5
EndSplineSet
EndChar

StartChar: dotaccent
Encoding: 729 729 99
Width: 500
VWidth: 0
Flags: HMW
AnchorPoint: "dot" 250 590 basechar 0
LayerCount: 2
Fore
SplineSet
164 666 m 0
 164 713 203 752 250 752 c 0
 297 752 336 713 336 666 c 0
 336 619 297 580 250 580 c 0
 203 580 164 619 164 666 c 0
EndSplineSet
EndChar

StartChar: ring
Encoding: 730 730 100
Width: 500
VWidth: 0
Flags: HMW
AnchorPoint: "ring" 250 590 basechar 0
LayerCount: 2
Fore
SplineSet
200 680 m 0
 200 651 221 630 250 630 c 0
 279 630 300 651 300 680 c 0
 300 709 279 730 250 730 c 4
 221 730 200 709 200 680 c 0
150 680 m 0
 150 735 195 780 250 780 c 0
 305 780 350 735 350 680 c 0
 350 625 305 580 250 580 c 0
 195 580 150 625 150 680 c 0
EndSplineSet
EndChar

StartChar: breve
Encoding: 728 728 101
Width: 500
VWidth: 0
Flags: HMW
AnchorPoint: "dot" 244 559 basechar 0
LayerCount: 2
Fore
SplineSet
244 679 m 1
 204 679 179 693 179 741 c 1
 64 735 l 1
 64 636 135 559 244 559 c 1
 244 679 l 1
244 679 m 5
 244 559 l 1
 353 559 424 636 424 735 c 1
 309 741 l 5
 309 693 286 679 244 679 c 5
EndSplineSet
EndChar

StartChar: circumflex
Encoding: 710 710 102
Width: 500
VWidth: 0
Flags: HMW
AnchorPoint: "dot" 250 630 basechar 0
LayerCount: 2
Fore
SplineSet
315 630 m 1
 215 730 l 1
 305 730 l 1
 405 630 l 1
 315 630 l 1
195 730 m 5
 285 730 l 1
 185 630 l 1
 95 630 l 5
 195 730 l 5
EndSplineSet
EndChar

StartChar: caron
Encoding: 711 711 103
Width: 500
VWidth: 0
Flags: HMW
AnchorPoint: "dot" 250 630 basechar 0
LayerCount: 2
Fore
SplineSet
185 730 m 1
 285 630 l 1
 195 630 l 5
 95 730 l 5
 185 730 l 1
305 630 m 1
 215 630 l 1
 315 730 l 1
 405 730 l 1
 305 630 l 1
EndSplineSet
EndChar

StartChar: cent
Encoding: 162 162 105
Width: 600
VWidth: 0
Flags: HMW
LayerCount: 2
Fore
SplineSet
295 600 m 5
 355 600 l 1
 355 -80 l 1
 295 -80 l 5
 295 600 l 5
EndSplineSet
Refer: 30 99 N 1 0 0 1 10 0 2
EndChar

StartChar: sterling
Encoding: 163 163 108
Width: 600
VWidth: 0
Flags: HMW
LayerCount: 2
Fore
SplineSet
190 95 m 1
 37 -1 l 5
 207 272.541992188 75 278.921875 75 530 c 1
 235 490 l 1
 235 306.112304688 340 269.735351562 190 95 c 1
125 -25 m 5
 37 -1 l 5
 111.565429688 77.2607421875 206.859375 141.638671875 278.23046875 141.638671875 c 0
 341.844726562 141.638671875 352.365234375 117.962890625 396.607421875 117.962890625 c 0
 441.108398438 117.962890625 450 128.58984375 470 166 c 1
 555 70 l 1
 530.434570312 -18.2607421875 463.989257812 -31.638671875 413.821289062 -31.638671875 c 0
 332.262695312 -31.638671875 274.831054688 2.037109375 232.247070312 2.037109375 c 0
 188.446289062 2.037109375 145 -5.58984375 125 -25 c 5
45 400 m 1
 343 400 l 1
 343 245 l 1
 45 245 l 1
 45 400 l 1
305 555 m 1
 299 710 l 1
 381 710 450 669 487 610 c 1
 411 497 l 1
 384 536 349 555 305 555 c 1
235 490 m 1
 75 530 l 1
 75 639 156 710 299 710 c 1
 305 555 l 1
 250 555 235 529 235 490 c 1
EndSplineSet
EndChar

StartChar: currency
Encoding: 164 164 109
Width: 600
VWidth: 0
Flags: HMW
LayerCount: 2
Fore
SplineSet
229 315 m 0
 229 273 258 239 300 239 c 0
 342 239 371 273 371 315 c 0
 371 357 342 391 300 391 c 0
 258 391 229 357 229 315 c 0
113 219 m 5
 204 128 l 1
 108 32 l 1
 17 123 l 5
 113 219 l 5
391 133 m 1
 481 224 l 1
 582 123 l 1
 492 32 l 1
 391 133 l 1
492 598 m 1
 583 507 l 1
 470 394 l 1
 379 485 l 1
 492 598 l 1
17 507 m 1
 108 598 l 1
 221 485 l 1
 130 394 l 1
 17 507 l 1
84 315 m 0
 84 434 181 531 300 531 c 0
 419 531 516 434 516 315 c 0
 516 196 419 99 300 99 c 0
 181 99 84 196 84 315 c 0
EndSplineSet
EndChar

StartChar: brokenbar
Encoding: 166 166 111
Width: 300
VWidth: 0
Flags: HMW
LayerCount: 2
Fore
SplineSet
185 460 m 5
 115 460 l 5
 115 780 l 1
 185 780 l 1
 185 460 l 5
185 280 m 1
 185 -80 l 1
 115 -80 l 1
 115 280 l 1
 185 280 l 1
EndSplineSet
EndChar

StartChar: section
Encoding: 167 167 112
Width: 520
VWidth: 0
Flags: HMW
LayerCount: 2
Fore
SplineSet
350 152 m 1
 490 137 l 1
 490 41 384 -10 275 -10 c 0
 166 -10 74 50 32 92 c 1
 112 193 l 1
 150 160 227 125 275 125 c 0
 313 125 350 135 350 152 c 1
210 192 m 0
 92.0659347801 203.899788277 -15 340 135 450 c 1
 235 450 l 1
 135 360 191.405273438 318.23828125 300 303 c 0
 403.477539062 288.479492188 490 232 490 137 c 1
 350 152 l 1
 350 172 317.719726562 181.130859375 210 192 c 0
220 548 m 1
 80 563 l 1
 80 659 166 710 275 710 c 0
 384 710 436 670 478 628 c 1
 398 527 l 1
 360 560 323 575 275 575 c 0
 237 575 220 565 220 548 c 1
340 508 m 0
 457.924804688 496.008789062 565 360 415 250 c 1
 315 250 l 5
 415 340 358.594726562 381.76171875 250 397 c 0
 146.522460938 411.520507812 80 468 80 563 c 1
 220 548 l 1
 220 528 282.280273438 513.869140625 340 508 c 0
EndSplineSet
EndChar

StartChar: copyright
Encoding: 169 169 114
Width: 850
VWidth: 0
Flags: HMW
LayerCount: 2
Fore
SplineSet
113 350 m 0
 113 174 254 30 425 30 c 0
 596 30 737 174 737 350 c 0
 737 526 596 670 425 670 c 0
 254 670 113 526 113 350 c 0
70 350 m 0
 70 549 230 710 425 710 c 0
 620 710 780 549 780 350 c 0
 780 151 620 -10 425 -10 c 0
 230 -10 70 151 70 350 c 0
EndSplineSet
Refer: 8 67 N 0.5 0 0 0.5 220.5 175 2
EndChar

StartChar: registered
Encoding: 174 174 116
Width: 850
VWidth: 0
Flags: HMW
LayerCount: 2
Fore
SplineSet
113 350 m 0
 113 174 254 30 425 30 c 0
 596 30 737 174 737 350 c 0
 737 526 596 670 425 670 c 0
 254 670 113 526 113 350 c 0
70 350 m 0
 70 549 230 710 425 710 c 0
 620 710 780 549 780 350 c 0
 780 151 620 -10 425 -10 c 0
 230 -10 70 151 70 350 c 0
EndSplineSet
Refer: 17 82 S 0.5 0 0 0.5 252 175 2
EndChar

StartChar: degree
Encoding: 176 176 119
Width: 400
VWidth: 0
Flags: HMW
LayerCount: 2
Fore
SplineSet
130 680 m 0
 130 641 161 610 200 610 c 0
 239 610 270 641 270 680 c 0
 270 719 239 750 200 750 c 0
 161 750 130 719 130 680 c 0
100 680 m 0
 100 735 145 780 200 780 c 0
 255 780 300 735 300 680 c 0
 300 625 255 580 200 580 c 0
 145 580 100 625 100 680 c 0
EndSplineSet
EndChar

StartChar: mu
Encoding: 181 181 120
Width: 635
VWidth: 0
Flags: HMW
LayerCount: 2
Fore
SplineSet
45 220 m 5
 210 220 l 5
 210 -198 l 5
 45 -198 l 5
 45 220 l 5
EndSplineSet
Refer: 40 117 N 1 0 0 1 0 0 2
EndChar

StartChar: grave
Encoding: 96 96 123
Width: 320
VWidth: 0
Flags: HMW
AnchorPoint: "dot" 200 590 basechar 0
LayerCount: 2
Fore
SplineSet
150 590 m 5
 30 730 l 5
 210 730 l 1
 290 590 l 1
 150 590 l 5
EndSplineSet
EndChar

StartChar: acute
Encoding: 180 180 124
Width: 320
VWidth: 0
Flags: HMW
AnchorPoint: "dot" 120 590 basechar 0
LayerCount: 2
Fore
SplineSet
160 590 m 1
 40 590 l 5
 120 730 l 5
 280 730 l 1
 160 590 l 1
EndSplineSet
EndChar

StartChar: logicalnot
Encoding: 172 172 126
Width: 540
VWidth: 0
Flags: HMW
LayerCount: 2
Fore
SplineSet
405 475 m 5
 475 475 l 5
 475 275 l 1
 405 275 l 1
 405 475 l 5
EndSplineSet
Refer: 78 45 N 1.13333 0 0 1 -8.66667 100 2
EndChar

StartChar: macron
Encoding: 175 175 127
Width: 300
VWidth: 0
Flags: HMW
LayerCount: 2
Fore
SplineSet
-2 800 m 1
 302 800 l 5
 302 720 l 5
 -2 720 l 1
 -2 800 l 1
EndSplineSet
EndChar

StartChar: paragraph
Encoding: 182 182 130
Width: 600
VWidth: 0
Flags: HMW
LayerCount: 2
Fore
SplineSet
445 700 m 1
 445 656 l 1
 353 656 l 1
 353 700 l 1
 445 700 l 1
525 700 m 1
 525 0 l 1
 445 0 l 1
 445 700 l 1
 525 700 l 1
375 700 m 1
 375 0 l 1
 295 0 l 1
 295 700 l 1
 375 700 l 1
295 260 m 1
 196 260 75 351 75 480 c 0
 75 609 196 700 295 700 c 1
 295 520 295 440 295 260 c 1
EndSplineSet
EndChar

StartChar: cedilla
Encoding: 184 184 131
Width: 320
VWidth: 0
Flags: HMW
AnchorPoint: "ced" 146 -1 basechar 0
LayerCount: 2
Fore
SplineSet
84 30 m 1
 124 30 l 1
 174 -4 249 -44 249 -112 c 0
 249 -169 227 -204 150 -204 c 4
 103 -204 75 -180 54 -165 c 1
 76 -95 l 1
 92 -108 113 -120 133 -120 c 0
 159 -120 168 -109 168 -89 c 0
 168 -64 131 -9 84 30 c 1
EndSplineSet
EndChar

StartChar: dotlessi
Encoding: 305 305 225
Width: 270
VWidth: 0
Flags: HMW
AnchorPoint: "ced" 135 0 basechar 0
LayerCount: 2
Fore
SplineSet
55 520 m 5
 215 520 l 1
 215 0 l 1
 55 0 l 5
 55 520 l 5
EndSplineSet
EndChar

StartChar: uni0237
Encoding: 567 567 349
Width: 270
VWidth: 0
Flags: HMW
LayerCount: 2
Fore
SplineSet
49 520 m 1
 214 520 l 1
 214 -60 l 1
 49 -30 l 1
 49 520 l 1
12 -65 m 1
 42 -210 l 1
 -15 -210 -85 -192 -112 -158 c 1
 -42 -37 l 1
 -25 -56 -10 -65 12 -65 c 1
49 -30 m 1
 214 -60 l 1
 214 -179 131 -210 42 -210 c 1
 12 -65 l 1
 39 -65 49 -57 49 -30 c 1
EndSplineSet
EndChar

StartChar: kgreenlandic
Encoding: 312 312 573
Width: 590
VWidth: 0
Flags: HMW
AnchorPoint: "dot" 325 673 basechar 0
AnchorPoint: "ced" 515 0 basechar 0
LayerCount: 2
Fore
SplineSet
203 291 m 1
 385 311 l 1
 620 0 l 1
 422 0 l 1
 203 291 l 1
399 520 m 1
 600 520 l 1
 215 110 l 1
 60 154 l 1
 399 520 l 1
50 520 m 1
 215 520 l 1
 215 0 l 1
 50 0 l 1
 50 520 l 1
EndSplineSet
EndChar

StartChar: ogonek
Encoding: 731 731 574
Width: 320
VWidth: 0
Flags: HMW
AnchorPoint: "ced" 149 0 basechar 0
LayerCount: 2
Fore
SplineSet
209 30 m 1
 162 -9 115 -64 115 -89 c 0
 115 -111 129 -120 160 -120 c 0
 190 -120 199 -113 217 -100 c 5
 239 -165 l 1
 218 -180 190 -204 143 -204 c 0
 76 -204 34 -169 34 -112 c 0
 34 -54 119 -4 169 30 c 1
 209 30 l 1
EndSplineSet
EndChar

StartChar: AE
Encoding: 198 198 582
Width: 1090
VWidth: 0
Flags: HMW
LayerCount: 2
Fore
SplineSet
440 700 m 1
 565 700 l 1
 560 550 l 1
 440 550 l 1
 440 700 l 1
204 260 m 1
 596 260 l 1
 596 115 l 5
 204 115 l 5
 204 260 l 1
440 700 m 1
 595 690 l 1
 205 0 l 1
 40 0 l 1
 440 700 l 1
EndSplineSet
Refer: 0 69 N 1 0 0 1 430 0 2
EndChar

StartChar: fi
Encoding: 64257 64257 585
Width: 405
VWidth: 0
Flags: HMW
AnchorPoint: "ced" 175 0 basechar 0
LayerCount: 2
Fore
SplineSet
10 520 m 1
 363 520 l 1
 363 375 l 1
 10 375 l 1
 10 520 l 1
245 540 m 1
 245 0 l 1
 80 0 l 1
 80 590 l 1
 245 540 l 1
245 540 m 1
 80 590 l 1
 80 669 148 740 267 740 c 1
 293 597 l 1
 258 597 245 569 245 540 c 1
293 597 m 1
 267 740 l 1
 291.577870229 740 328.198242188 740.54296875 363 730.5 c 5
 363 580.498046875 l 5
 338.98046875 593.93359375 314.596750273 597 293 597 c 1
EndSplineSet
EndChar
